# xmcd
#
# Track frame offsets: 
#        150
#        18768
#        38675
#        52069
#        63259
#
# Disc length: 1073 seconds
#
# Revision: 0
# Processed by: cddbd v1.5.2PL0 Copyright (c) Steve Scherf et al.
# Submitted via: ExactAudioCopy v0.99pb4
#
DISCID=36042f05
DTITLE=Slo burn - Demo
DYEAR=1996
DGENRE=Rock
TTITLE0=Wheelfall
TTITLE1=Positiva
TTITLE2=Cactus jumper
TTITLE3=Round trip
TTITLE4=Snake hips
EXTD=
EXTT0=
EXTT1=
EXTT2=
EXTT3=
EXTT4=
PLAYORDER=
